<svg xmlns="http://www.w3.org/2000/svg" version="1.0" width="582.000000pt" height="182.000000pt" viewBox="0 0 582.000000 182.000000" preserveAspectRatio="xMidYMid meet">

<g transform="translate(0.000000,182.000000) scale(0.100000,-0.100000)" fill="#695642" stroke="none">
<path d="M2825 1508 c-82 -97 -119 -196 -113 -308 2 -39 2 -70 0 -70 -2 0 -22 15 -45 34 -61 49 -117 74 -194 88 -88 15 -144 3 -154 -32 -22 -79 3 -213 51 -272 31 -39 30 -16 -2 50 -25 51 -32 76 -32 130 -1 99 1 102 83 102 133 0 247 -66 311 -179 49 -85 57 -97 66 -88 4 4 -4 31 -19 60 -60 119 -61 244 -3 362 19 39 53 87 74 108 l40 39 51 -64 c99 -120 140 -247 120 -368 -11 -69 -46 -154 -83 -203 -27 -35 -33 -57 -17 -57 24 0 120 189 121 237 0 34 64 99 126 129 41 20 75 28 140 32 l87 5 -5 -90 c-3 -71 -9 -101 -31 -145 -45 -91 -143 -170 -259 -207 -21 -7 -38 -17 -38 -23 0 -15 56 -2 116 27 65 32 78 31 152 -6 44 -22 71 -43 92 -74 l30 -43 -48 -39 c-139 -115 -280 -142 -406 -78 -28 14 -97 67 -152 116 -63 57 -125 102 -171 125 -69 35 -75 36 -160 32 -75 -3 -97 -9 -148 -36 -63 -34 -155 -107 -155 -123 0 -26 98 -112 164 -145 59 -29 83 -35 136 -35 36 0 79 2 95 6 47 11 145 57 145 68 0 11 -8 9 -105 -28 -131 -50 -255 -23 -359 78 l-51 49 48 43 c26 24 73 56 105 72 49 24 69 28 142 28 77 0 90 -3 145 -33 33 -18 105 -73 160 -123 55 -49 125 -102 155 -117 48 -24 67 -27 151 -27 90 0 99 2 170 37 40 21 94 55 118 76 36 32 43 43 38 63 -11 44 -73 104 -137 133 l-61 27 50 55 c75 82 112 203 96 309 l-7 47 -91 -4 c-75 -3 -103 -8 -152 -31 -33 -16 -70 -38 -82 -49 -13 -12 -24 -20 -26 -17 -2 2 -9 32 -15 67 -14 81 -49 157 -107 232 -46 60 -80 90 -101 90 -7 0 -29 -19 -49 -42z" fill="#695642"/>
<path d="M1781 1197 c8 -19 -3 -49 -75 -197 -85 -175 -85 -175 -59 -178 16 -2 30 3 39 16 17 25 91 42 179 42 62 0 65 -1 80 -30 11 -21 23 -30 41 -30 14 0 24 4 22 8 -1 5 -43 95 -93 200 -84 180 -92 192 -117 192 -25 0 -27 -2 -17 -23z m89 -189 l42 -78 -59 0 c-32 0 -74 -4 -92 -10 -19 -5 -35 -9 -36 -7 -6 8 88 188 94 181 5 -5 28 -44 51 -86z" fill="#695642"/>
<path d="M4271 1197 c8 -19 -3 -49 -74 -197 -83 -173 -84 -175 -60 -178 16 -2 30 4 39 16 17 25 91 42 179 42 62 0 65 -1 80 -30 11 -21 23 -30 41 -30 14 0 24 4 22 9 -1 5 -43 95 -93 200 -84 180 -91 191 -117 191 -25 0 -27 -2 -17 -23z m84 -177 l45 -90 -57 0 c-32 0 -73 -4 -91 -9 -17 -5 -32 -7 -32 -4 0 7 83 193 87 193 1 0 23 -40 48 -90z" fill="#695642"/>
<path d="M180 1208 c0 -2 35 -89 78 -194 l79 -189 34 -3 34 -2 81 195 82 195 -28 0 c-30 0 -28 5 -130 -247 -19 -46 -37 -83 -40 -83 -3 0 -35 73 -71 163 -60 148 -68 162 -92 165 -15 2 -27 2 -27 0z" fill="#695642"/>
<path d="M710 1015 l0 -195 145 0 145 0 0 25 0 25 -120 0 -120 0 0 54 c0 30 4 58 10 61 5 3 41 9 80 12 65 5 70 8 70 29 0 22 -4 24 -54 24 -30 0 -66 -4 -80 -10 l-26 -10 0 65 0 65 110 0 110 0 0 25 0 25 -135 0 -135 0 0 -195z" fill="#695642"/>
<path d="M1137 1189 c3 -12 14 -24 25 -26 17 -5 18 -18 18 -174 l0 -169 97 0 c84 0 101 3 139 25 51 30 94 107 94 170 0 56 -41 134 -87 165 -33 23 -47 25 -164 28 -127 4 -128 4 -122 -19z m259 -48 c58 -35 81 -127 49 -194 -25 -53 -71 -77 -148 -77 l-67 0 0 145 0 145 68 0 c48 0 76 -5 98 -19z" fill="#695642"/>
<path d="M3750 1015 l0 -195 135 0 135 0 0 25 0 25 -110 0 -110 0 0 170 0 170 -25 0 -25 0 0 -195z" fill="#695642"/>
<path d="M4639 1184 c19 -25 21 -40 21 -195 l0 -169 25 0 24 0 3 136 3 137 113 -137 c89 -106 119 -136 138 -136 l24 0 0 195 0 195 -25 0 -24 0 -3 -152 -3 -152 -128 152 c-113 134 -132 152 -158 152 l-30 0 20 -26z" fill="#695642"/>
<path d="M5150 1201 c0 -23 14 -41 31 -41 18 0 19 -10 19 -170 l0 -170 89 0 c49 0 102 5 118 11 104 39 148 187 86 288 -47 75 -86 91 -225 91 -65 0 -118 -4 -118 -9z m250 -54 c93 -47 94 -214 1 -262 -17 -8 -55 -15 -91 -15 l-60 0 0 145 0 145 63 0 c34 0 73 -6 87 -13z" fill="#695642"/>
</g>
</svg>