<svg xmlns="http://www.w3.org/2000/svg" version="1.0" width="153.000000pt" height="212.000000pt" viewBox="0 0 153.000000 212.000000" preserveAspectRatio="xMidYMid meet">

<g transform="translate(0.000000,212.000000) scale(0.100000,-0.100000)" fill="#695642" stroke="none">
<path d="M735 1658 c-82 -97 -119 -196 -113 -308 2 -39 2 -70 0 -70 -2 0 -22 15 -45 34 -61 49 -117 74 -194 88 -88 15 -144 3 -154 -32 -22 -79 3 -213 51 -272 31 -39 30 -16 -2 50 -25 51 -32 76 -32 130 -1 99 1 102 83 102 133 0 247 -66 311 -179 49 -85 57 -97 66 -88 4 4 -4 31 -19 60 -60 119 -61 244 -3 362 19 39 53 87 74 108 l40 39 51 -64 c99 -120 140 -247 120 -368 -11 -69 -46 -154 -83 -203 -27 -35 -33 -57 -17 -57 24 0 120 189 121 237 0 34 64 99 126 129 41 20 75 28 140 32 l87 5 -5 -90 c-3 -71 -9 -101 -31 -145 -45 -91 -143 -170 -259 -207 -21 -7 -38 -17 -38 -23 0 -15 56 -2 116 27 65 32 78 31 152 -6 44 -22 71 -43 92 -74 l30 -43 -48 -39 c-139 -115 -280 -142 -406 -78 -28 14 -97 67 -152 116 -63 57 -125 102 -171 125 -69 35 -75 36 -160 32 -75 -3 -97 -9 -148 -36 -63 -34 -155 -107 -155 -123 0 -26 98 -112 164 -145 59 -29 83 -35 136 -35 36 0 79 2 95 6 47 11 145 57 145 68 0 11 -8 9 -105 -28 -131 -50 -255 -23 -359 78 l-51 49 48 43 c26 24 73 56 105 72 49 24 69 28 142 28 77 0 90 -3 145 -33 33 -18 105 -73 160 -123 55 -49 125 -102 155 -117 48 -24 67 -27 151 -27 90 0 99 2 170 37 40 21 94 55 118 76 36 32 43 43 38 63 -11 44 -73 104 -137 133 l-61 27 50 55 c75 82 112 203 96 309 l-7 47 -91 -4 c-75 -3 -103 -8 -152 -31 -33 -16 -70 -38 -82 -49 -13 -12 -24 -20 -26 -17 -2 2 -9 32 -15 67 -14 81 -49 157 -107 232 -46 60 -80 90 -101 90 -7 0 -29 -19 -49 -42z" fill="#695642"/>
</g>
</svg>